<svg xmlns="http://www.w3.org/2000/svg" fill="#fff" width="204" height="47"><path d="M57.242 28.049H57.2c-.577 1.253-2.039 1.934-3.336 1.934-2.987 0-3.459-2.017-3.459-2.964 0-3.522 3.748-3.688 6.466-3.688h.248v-.536c0-1.79.39-2.697-1.359-2.697-1.09 0-2.12.246-3.089.864v-1.258c.805-.389 2.161-.718 3.089-.718 2.594 0 2.657 1.175 2.657 3.915v4.632c0 .845 0 1.483.102 2.204h-1.275v-1.688zm-.124-3.606h-.37c-2.245 0-4.924.226-4.924 2.534 0 1.38.99 1.895 2.185 1.895 3.046 0 3.109-2.658 3.109-3.79v-.639zm12.706 4.429c0 2.925-1.319 5.312-4.923 5.312v-1.112c3.339 0 3.646-2.43 3.646-5.395h-.043c-.699 1.524-1.852 2.06-3.19 2.06-3.358 0-4.427-2.925-4.427-5.252 0-3.191 1.235-5.499 4.323-5.499 1.4 0 2.308.186 3.274 1.441l1.339-1.194v9.639zm-4.489-.25c2.346 0 3.149-2.1 3.191-4.138.043-2.101-.741-4.386-3.111-4.386-2.47 0-3.11 2.347-3.11 4.386.001 2.059.826 4.138 3.03 4.138zm14.661.786c-.906.369-2.079.574-3.046.574-3.481 0-4.777-2.348-4.777-5.498 0-3.211 1.77-5.499 4.426-5.499 2.966 0 4.181 2.389 4.181 5.209v.658h-7.187c0 2.224 1.194 4.019 3.458 4.019.948 0 1.916-.393 2.535-.785l.41 1.322zm-.638-5.664c0-1.835-.742-3.646-2.677-3.646-1.915 0-3.088 1.916-3.088 3.646h5.765zm3.892-2.039c0-.805 0-1.628-.081-2.473h1.255v1.874h.041c.433-.945 1.214-2.121 3.398-2.121 2.595 0 3.583 1.73 3.583 4.037v6.714H90.15V23.35c0-1.976-.702-3.252-2.492-3.252-2.369 0-3.109 2.081-3.109 3.831v5.808H83.25v-8.032zm18.081-1.07c-.7-.31-1.337-.537-2.036-.537-2.534 0-3.955 1.832-3.955 4.386 0 2.388 1.44 4.388 3.81 4.388.825 0 1.174-.188 1.954-.475l.534 1.215c-.883.309-1.707.37-2.693.37-3.378 0-5.029-2.574-5.029-5.498 0-3.234 2.084-5.499 5.19-5.499 1.258 0 2.163.29 2.532.412l-.307 1.238zm9.554 8.772c-.904.37-2.078.575-3.047.575-3.48 0-4.778-2.348-4.778-5.498 0-3.211 1.772-5.499 4.428-5.499 2.968 0 4.183 2.389 4.183 5.209v.658h-7.188c0 2.224 1.194 4.019 3.459 4.019.948 0 1.915-.393 2.534-.785l.409 1.321zm-.637-5.664c0-1.834-.742-3.645-2.677-3.645-1.914 0-3.089 1.916-3.089 3.646l5.766-.001zm14.321-7.6l-.136.081.184 2.922.39-.329c1.029-.869 2.566-1.409 4.011-1.409.835 0 1.349.129 1.613.403.255.266.313.713.313 1.314 0 .227-.007.473-.017.741l-.018.778-2.568-.052c-2.581 0-6.945 1.052-6.945 4.996 0 3.015 2.018 4.745 5.534 4.745 2.226 0 3.559-1.051 4.254-1.823v1.485h3.01l-.124-3.082v-5.952c0-3.851-.222-6.21-4.629-6.21-1.684-.001-3.324.468-4.872 1.392zm.164 9.445c0-2.183 2.967-2.508 4.733-2.508l1.437.048v1.022c0 2.171-1.437 3.522-3.748 3.522-.976.001-2.422-.663-2.422-2.084zm13.649-15.71v20.117h3.164V6.842l-3.164 3.036zm7.505 0v20.394l2.797-2.241c.848 1.146 2.526 2.302 4.962 2.302 4.754 0 6.44-4.335 6.44-8.045 0-3.753-2.001-7.538-6.467-7.538-2.07 0-3.546.756-4.566 2.054V6.842l-3.166 3.036zm3.166 12.69c0-2.484 1.253-5.161 4-5.161.959 0 1.755.322 2.373.954.878.898 1.36 2.398 1.319 4.117.033 1.236-.334 3.075-1.462 4.233-.62.638-1.38.961-2.258.961-2.729.001-3.972-2.645-3.972-5.104zm24.142-7.477v6.916c0 2.115-.532 5.666-4.115 5.666-2.03-.124-2.79-1.447-2.79-4.878v-7.704h-3.167v8.807c0 4.21 1.951 6.436 5.645 6.436 1.949 0 3.575-.951 4.513-2.325v1.987h3.083V15.091h-3.169zm18.578 2.291c-.789-1.606-2.237-2.631-4.072-2.631-1.972 0-3.333.76-4.37 2.137v-1.797h-2.999v14.904h3.167v-7.51c0-2.453.925-5.078 3.524-5.078 1.91 0 2.31 2.04 2.31 3.75v8.838h3.165v-7.51c0-2.453.926-5.078 3.525-5.078 1.91 0 2.309 2.04 2.309 3.75v8.838h3.168V20.51c0-3.768-1.816-5.759-5.251-5.759-1.488-.001-3.44.852-4.476 2.631zM40.292 23.338c-1.101-3.044-3.932-5.591-7.665-7.126.037-.518.113-1.059.113-1.553 0-5.375-2.115-9.36-6.028-11.162-5.736-2.638-13.786.092-19.581 6.648l1.083.957c5.377-6.08 12.733-8.667 17.893-6.295 3.369 1.553 5.188 5.072 5.188 9.863 0 .346-.06.729-.078 1.084-.641-.206-1.241-.469-1.922-.616-7.815-1.676-21.019-.267-25.482 6.735-1.57 2.464-1.736 5.051-.467 7.288 1.708 3.004 5.657 4.784 10.305 4.642 7.866-.154 17.607-6.993 18.858-15.92.007-.064.004-.12.012-.186 3.144 1.388 5.491 3.578 6.414 6.131.292.812.436 1.641.436 2.479 0 1.922-.764 3.89-2.268 5.801-3.495 4.435-9.428 6.44-14.037 7.351-.322-2.097-2.116-3.709-4.304-3.709a4.375 4.375 0 0 0 0 8.75 4.37 4.37 0 0 0 4.292-3.57c4.884-.935 11.355-3.063 15.184-7.928 1.959-2.483 2.584-4.77 2.584-6.672a8.88 8.88 0 0 0-.53-2.992zm-9.216-5.652C29.941 25.78 20.758 32.221 13.614 32.36c-4.057.124-7.591-1.411-9.012-3.912-.995-1.748-.841-3.807.429-5.798 4.055-6.362 16.742-7.646 23.961-6.098.752.161 1.422.435 2.116.673-.017.16-.011.3-.032.461z"></path></svg>